<?xml version="1.0" encoding="UTF-8" standalone="no"?>
<!DOCTYPE svg PUBLIC "-//W3C//DTD SVG 1.1//EN"
 "http://www.w3.org/Graphics/SVG/1.1/DTD/svg11.dtd">
<!-- Generated by graphviz version 2.40.1 (20161225.0304)
 -->
<!-- Title: snakemake_dag Pages: 1 -->
<svg width="581pt" height="548pt"
 viewBox="0.00 0.00 581.00 548.00" xmlns="http://www.w3.org/2000/svg" xmlns:xlink="http://www.w3.org/1999/xlink">
<g id="graph0" class="graph" transform="scale(1 1) rotate(0) translate(4 544)">
<title>snakemake_dag</title>
<polygon fill="#ffffff" stroke="transparent" points="-4,4 -4,-544 577,-544 577,4 -4,4"/>
<!-- 0 -->
<g id="node1" class="node">
<title>0</title>
<path fill="none" stroke="#d8b456" stroke-width="2" d="M148,-36C148,-36 118,-36 118,-36 112,-36 106,-30 106,-24 106,-24 106,-12 106,-12 106,-6 112,0 118,0 118,0 148,0 148,0 154,0 160,-6 160,-12 160,-12 160,-24 160,-24 160,-30 154,-36 148,-36"/>
<text text-anchor="middle" x="133" y="-15.5" font-family="sans" font-size="10.00" fill="#000000">all</text>
</g>
<!-- 1 -->
<g id="node2" class="node">
<title>1</title>
<path fill="none" stroke="#bed856" stroke-width="2" d="M119,-108C119,-108 57,-108 57,-108 51,-108 45,-102 45,-96 45,-96 45,-84 45,-84 45,-78 51,-72 57,-72 57,-72 119,-72 119,-72 125,-72 131,-78 131,-84 131,-84 131,-96 131,-96 131,-102 125,-108 119,-108"/>
<text text-anchor="middle" x="88" y="-87.5" font-family="sans" font-size="10.00" fill="#000000">merge_counts</text>
</g>
<!-- 1&#45;&gt;0 -->
<g id="edge1" class="edge">
<title>1&#45;&gt;0</title>
<path fill="none" stroke="#c0c0c0" stroke-width="2" d="M99.3554,-71.8314C104.4326,-63.7079 110.5227,-53.9637 116.1176,-45.0118"/>
<polygon fill="#c0c0c0" stroke="#c0c0c0" stroke-width="2" points="119.1597,-46.7483 121.4917,-36.4133 113.2237,-43.0383 119.1597,-46.7483"/>
</g>
<!-- 2 -->
<g id="node3" class="node">
<title>2</title>
<path fill="none" stroke="#9fd856" stroke-width="2" d="M245.5,-108C245.5,-108 210.5,-108 210.5,-108 204.5,-108 198.5,-102 198.5,-96 198.5,-96 198.5,-84 198.5,-84 198.5,-78 204.5,-72 210.5,-72 210.5,-72 245.5,-72 245.5,-72 251.5,-72 257.5,-78 257.5,-84 257.5,-84 257.5,-96 257.5,-96 257.5,-102 251.5,-108 245.5,-108"/>
<text text-anchor="middle" x="228" y="-87.5" font-family="sans" font-size="10.00" fill="#000000">multi_qc</text>
</g>
<!-- 2&#45;&gt;0 -->
<g id="edge2" class="edge">
<title>2&#45;&gt;0</title>
<path fill="none" stroke="#c0c0c0" stroke-width="2" d="M204.0275,-71.8314C192.2139,-62.8779 177.8028,-51.9558 165.0565,-42.2955"/>
<polygon fill="#c0c0c0" stroke="#c0c0c0" stroke-width="2" points="167.0486,-39.4137 156.9648,-36.1628 162.8205,-44.9925 167.0486,-39.4137"/>
</g>
<!-- 3 -->
<g id="node4" class="node">
<title>3</title>
<path fill="none" stroke="#56b1d8" stroke-width="2" d="M64,-180C64,-180 12,-180 12,-180 6,-180 0,-174 0,-168 0,-168 0,-156 0,-156 0,-150 6,-144 12,-144 12,-144 64,-144 64,-144 70,-144 76,-150 76,-156 76,-156 76,-168 76,-168 76,-174 70,-180 64,-180"/>
<text text-anchor="middle" x="38" y="-159.5" font-family="sans" font-size="10.00" fill="#000000">htseq_count</text>
</g>
<!-- 3&#45;&gt;1 -->
<g id="edge3" class="edge">
<title>3&#45;&gt;1</title>
<path fill="none" stroke="#c0c0c0" stroke-width="2" d="M50.6171,-143.8314C56.3172,-135.6232 63.1663,-125.7606 69.4359,-116.7323"/>
<polygon fill="#c0c0c0" stroke="#c0c0c0" stroke-width="2" points="72.3838,-118.6234 75.213,-108.4133 66.6342,-114.6306 72.3838,-118.6234"/>
</g>
<!-- 3&#45;&gt;2 -->
<g id="edge9" class="edge">
<title>3&#45;&gt;2</title>
<path fill="none" stroke="#c0c0c0" stroke-width="2" d="M76.2138,-147.3478C79.1862,-146.2133 82.1415,-145.0871 85,-144 120.0575,-130.6677 159.9924,-115.5972 188.7334,-104.7715"/>
<polygon fill="#c0c0c0" stroke="#c0c0c0" stroke-width="2" points="190.2811,-107.9287 198.4062,-101.1292 187.8143,-101.3777 190.2811,-107.9287"/>
</g>
<!-- 4 -->
<g id="node5" class="node">
<title>4</title>
<path fill="none" stroke="#d85656" stroke-width="2" d="M561,-252C561,-252 511,-252 511,-252 505,-252 499,-246 499,-240 499,-240 499,-228 499,-228 499,-222 505,-216 511,-216 511,-216 561,-216 561,-216 567,-216 573,-222 573,-228 573,-228 573,-240 573,-240 573,-246 567,-252 561,-252"/>
<text text-anchor="middle" x="536" y="-231.5" font-family="sans" font-size="10.00" fill="#000000">fastqc_bam</text>
</g>
<!-- 4&#45;&gt;2 -->
<g id="edge4" class="edge">
<title>4&#45;&gt;2</title>
<path fill="none" stroke="#c0c0c0" stroke-width="2" d="M540.4172,-215.9671C544.1884,-195.7941 546.5598,-163.4077 529,-144 494.7101,-106.1016 341.7466,-94.6648 268.0074,-91.3233"/>
<polygon fill="#c0c0c0" stroke="#c0c0c0" stroke-width="2" points="267.8657,-87.8142 257.7263,-90.8869 267.5688,-94.8079 267.8657,-87.8142"/>
</g>
<!-- 5 -->
<g id="node6" class="node">
<title>5</title>
<path fill="none" stroke="#88d856" stroke-width="2" d="M384,-180C384,-180 304,-180 304,-180 298,-180 292,-174 292,-168 292,-168 292,-156 292,-156 292,-150 298,-144 304,-144 304,-144 384,-144 384,-144 390,-144 396,-150 396,-156 396,-156 396,-168 396,-168 396,-174 390,-180 384,-180"/>
<text text-anchor="middle" x="344" y="-159.5" font-family="sans" font-size="10.00" fill="#000000">samtools_flagstat</text>
</g>
<!-- 5&#45;&gt;2 -->
<g id="edge6" class="edge">
<title>5&#45;&gt;2</title>
<path fill="none" stroke="#c0c0c0" stroke-width="2" d="M314.7283,-143.8314C299.8912,-134.6221 281.6985,-123.3301 265.8138,-113.4706"/>
<polygon fill="#c0c0c0" stroke="#c0c0c0" stroke-width="2" points="267.6045,-110.4628 257.2623,-108.1628 263.913,-116.4102 267.6045,-110.4628"/>
</g>
<!-- 6 -->
<g id="node7" class="node">
<title>6</title>
<path fill="none" stroke="#5692d8" stroke-width="2" d="M508,-180C508,-180 426,-180 426,-180 420,-180 414,-174 414,-168 414,-168 414,-156 414,-156 414,-150 420,-144 426,-144 426,-144 508,-144 508,-144 514,-144 520,-150 520,-156 520,-156 520,-168 520,-168 520,-174 514,-180 508,-180"/>
<text text-anchor="middle" x="467" y="-159.5" font-family="sans" font-size="10.00" fill="#000000">samtools_idxstats</text>
</g>
<!-- 6&#45;&gt;2 -->
<g id="edge7" class="edge">
<title>6&#45;&gt;2</title>
<path fill="none" stroke="#c0c0c0" stroke-width="2" d="M413.9582,-146.0209C369.5858,-132.6535 307.2884,-113.8861 267.2802,-101.8334"/>
<polygon fill="#c0c0c0" stroke="#c0c0c0" stroke-width="2" points="268.1979,-98.4545 257.6134,-98.9212 266.1787,-105.157 268.1979,-98.4545"/>
</g>
<!-- 7 -->
<g id="node8" class="node">
<title>7</title>
<path fill="none" stroke="#56d8a2" stroke-width="2" d="M152,-180C152,-180 106,-180 106,-180 100,-180 94,-174 94,-168 94,-168 94,-156 94,-156 94,-150 100,-144 106,-144 106,-144 152,-144 152,-144 158,-144 164,-150 164,-156 164,-156 164,-168 164,-168 164,-174 158,-180 152,-180"/>
<text text-anchor="middle" x="129" y="-159.5" font-family="sans" font-size="10.00" fill="#000000">fastqc_raw</text>
</g>
<!-- 7&#45;&gt;2 -->
<g id="edge8" class="edge">
<title>7&#45;&gt;2</title>
<path fill="none" stroke="#c0c0c0" stroke-width="2" d="M153.9819,-143.8314C166.2928,-134.8779 181.3107,-123.9558 194.5937,-114.2955"/>
<polygon fill="#c0c0c0" stroke="#c0c0c0" stroke-width="2" points="196.9973,-116.8752 203.0261,-108.1628 192.8801,-111.214 196.9973,-116.8752"/>
</g>
<!-- 8 -->
<g id="node9" class="node">
<title>8</title>
<path fill="none" stroke="#d8d356" stroke-width="2" d="M261.5,-180C261.5,-180 194.5,-180 194.5,-180 188.5,-180 182.5,-174 182.5,-168 182.5,-168 182.5,-156 182.5,-156 182.5,-150 188.5,-144 194.5,-144 194.5,-144 261.5,-144 261.5,-144 267.5,-144 273.5,-150 273.5,-156 273.5,-156 273.5,-168 273.5,-168 273.5,-174 267.5,-180 261.5,-180"/>
<text text-anchor="middle" x="228" y="-159.5" font-family="sans" font-size="10.00" fill="#000000">samtools_stats</text>
</g>
<!-- 8&#45;&gt;2 -->
<g id="edge5" class="edge">
<title>8&#45;&gt;2</title>
<path fill="none" stroke="#c0c0c0" stroke-width="2" d="M228,-143.8314C228,-136.131 228,-126.9743 228,-118.4166"/>
<polygon fill="#c0c0c0" stroke="#c0c0c0" stroke-width="2" points="231.5001,-118.4132 228,-108.4133 224.5001,-118.4133 231.5001,-118.4132"/>
</g>
<!-- 9 -->
<g id="node10" class="node">
<title>9</title>
<path fill="none" stroke="#56d863" stroke-width="2" d="M398,-324C398,-324 336,-324 336,-324 330,-324 324,-318 324,-312 324,-312 324,-300 324,-300 324,-294 330,-288 336,-288 336,-288 398,-288 398,-288 404,-288 410,-294 410,-300 410,-300 410,-312 410,-312 410,-318 404,-324 398,-324"/>
<text text-anchor="middle" x="367" y="-303.5" font-family="sans" font-size="10.00" fill="#000000">samtools_sort</text>
</g>
<!-- 9&#45;&gt;3 -->
<g id="edge11" class="edge">
<title>9&#45;&gt;3</title>
<path fill="none" stroke="#c0c0c0" stroke-width="2" d="M323.7664,-290.2963C295.9217,-279.944 259.0667,-265.7954 227,-252 177.1423,-230.5508 121.1345,-203.4981 83.1201,-184.6795"/>
<polygon fill="#c0c0c0" stroke="#c0c0c0" stroke-width="2" points="84.371,-181.393 73.8578,-180.081 81.2582,-187.6628 84.371,-181.393"/>
</g>
<!-- 9&#45;&gt;4 -->
<g id="edge12" class="edge">
<title>9&#45;&gt;4</title>
<path fill="none" stroke="#c0c0c0" stroke-width="2" d="M409.6458,-287.8314C434.0102,-277.4513 464.5854,-264.4251 489.5561,-253.7868"/>
<polygon fill="#c0c0c0" stroke="#c0c0c0" stroke-width="2" points="490.9992,-256.9764 498.8273,-249.8369 488.2556,-250.5365 490.9992,-256.9764"/>
</g>
<!-- 9&#45;&gt;5 -->
<g id="edge14" class="edge">
<title>9&#45;&gt;5</title>
<path fill="none" stroke="#c0c0c0" stroke-width="2" d="M379.9401,-287.7875C391.3172,-269.4034 404.6729,-240.3296 395,-216 390.7324,-205.2659 383.2069,-195.4321 375.2261,-187.1828"/>
<polygon fill="#c0c0c0" stroke="#c0c0c0" stroke-width="2" points="377.4779,-184.4921 367.8491,-180.072 372.6199,-189.5319 377.4779,-184.4921"/>
</g>
<!-- 9&#45;&gt;6 -->
<g id="edge16" class="edge">
<title>9&#45;&gt;6</title>
<path fill="none" stroke="#c0c0c0" stroke-width="2" d="M382.2304,-287.8848C390.691,-277.5762 401.2445,-264.3026 410,-252 424.6115,-231.469 439.8159,-207.2985 450.8431,-189.1782"/>
<polygon fill="#c0c0c0" stroke="#c0c0c0" stroke-width="2" points="454.0283,-190.6744 456.2036,-180.3053 448.0368,-187.0547 454.0283,-190.6744"/>
</g>
<!-- 9&#45;&gt;8 -->
<g id="edge18" class="edge">
<title>9&#45;&gt;8</title>
<path fill="none" stroke="#c0c0c0" stroke-width="2" d="M323.7127,-296.97C297.7034,-289.3153 266.0583,-275.6644 247,-252 233.055,-234.6848 228.6581,-209.5855 227.5485,-190.2893"/>
<polygon fill="#c0c0c0" stroke="#c0c0c0" stroke-width="2" points="231.0455,-190.1366 227.2305,-180.2525 224.049,-190.3583 231.0455,-190.1366"/>
</g>
<!-- 10 -->
<g id="node11" class="node">
<title>10</title>
<path fill="none" stroke="#56d882" stroke-width="2" d="M374,-252C374,-252 268,-252 268,-252 262,-252 256,-246 256,-240 256,-240 256,-228 256,-228 256,-222 262,-216 268,-216 268,-216 374,-216 374,-216 380,-216 386,-222 386,-228 386,-228 386,-240 386,-240 386,-246 380,-252 374,-252"/>
<text text-anchor="middle" x="321" y="-231.5" font-family="sans" font-size="10.00" fill="#000000">samtools_index_sorted</text>
</g>
<!-- 9&#45;&gt;10 -->
<g id="edge20" class="edge">
<title>9&#45;&gt;10</title>
<path fill="none" stroke="#c0c0c0" stroke-width="2" d="M355.3923,-287.8314C350.2022,-279.7079 343.9768,-269.9637 338.2575,-261.0118"/>
<polygon fill="#c0c0c0" stroke="#c0c0c0" stroke-width="2" points="341.0974,-258.9559 332.764,-252.4133 335.1985,-262.7246 341.0974,-258.9559"/>
</g>
<!-- 10&#45;&gt;3 -->
<g id="edge10" class="edge">
<title>10&#45;&gt;3</title>
<path fill="none" stroke="#c0c0c0" stroke-width="2" d="M255.9989,-221.6959C210.5654,-212.5067 148.4235,-198.7645 85.7219,-180.019"/>
<polygon fill="#c0c0c0" stroke="#c0c0c0" stroke-width="2" points="86.6486,-176.6427 76.0633,-177.0925 84.6187,-183.3419 86.6486,-176.6427"/>
</g>
<!-- 10&#45;&gt;5 -->
<g id="edge13" class="edge">
<title>10&#45;&gt;5</title>
<path fill="none" stroke="#c0c0c0" stroke-width="2" d="M326.8039,-215.8314C329.2908,-208.0463 332.2531,-198.7729 335.0125,-190.1347"/>
<polygon fill="#c0c0c0" stroke="#c0c0c0" stroke-width="2" points="338.409,-191.0041 338.118,-180.4133 331.7409,-188.874 338.409,-191.0041"/>
</g>
<!-- 10&#45;&gt;6 -->
<g id="edge15" class="edge">
<title>10&#45;&gt;6</title>
<path fill="none" stroke="#c0c0c0" stroke-width="2" d="M357.842,-215.8314C377.1082,-206.3302 400.8699,-194.6121 421.2992,-184.5374"/>
<polygon fill="#c0c0c0" stroke="#c0c0c0" stroke-width="2" points="423.0023,-187.6 430.423,-180.038 419.9062,-181.3219 423.0023,-187.6"/>
</g>
<!-- 10&#45;&gt;8 -->
<g id="edge17" class="edge">
<title>10&#45;&gt;8</title>
<path fill="none" stroke="#c0c0c0" stroke-width="2" d="M297.5322,-215.8314C285.9673,-206.8779 271.8596,-195.9558 259.3817,-186.2955"/>
<polygon fill="#c0c0c0" stroke="#c0c0c0" stroke-width="2" points="261.5102,-183.5171 251.4603,-180.1628 257.225,-189.0521 261.5102,-183.5171"/>
</g>
<!-- 11 -->
<g id="node12" class="node">
<title>11</title>
<path fill="none" stroke="#68d856" stroke-width="2" d="M395,-396C395,-396 339,-396 339,-396 333,-396 327,-390 327,-384 327,-384 327,-372 327,-372 327,-366 333,-360 339,-360 339,-360 395,-360 395,-360 401,-360 407,-366 407,-372 407,-372 407,-384 407,-384 407,-390 401,-396 395,-396"/>
<text text-anchor="middle" x="367" y="-375.5" font-family="sans" font-size="10.00" fill="#000000">sam_to_bam</text>
</g>
<!-- 11&#45;&gt;9 -->
<g id="edge19" class="edge">
<title>11&#45;&gt;9</title>
<path fill="none" stroke="#c0c0c0" stroke-width="2" d="M367,-359.8314C367,-352.131 367,-342.9743 367,-334.4166"/>
<polygon fill="#c0c0c0" stroke="#c0c0c0" stroke-width="2" points="370.5001,-334.4132 367,-324.4133 363.5001,-334.4133 370.5001,-334.4132"/>
</g>
<!-- 12 -->
<g id="node13" class="node">
<title>12</title>
<path fill="none" stroke="#56d0d8" stroke-width="2" d="M355,-468C355,-468 287,-468 287,-468 281,-468 275,-462 275,-456 275,-456 275,-444 275,-444 275,-438 281,-432 287,-432 287,-432 355,-432 355,-432 361,-432 367,-438 367,-444 367,-444 367,-456 367,-456 367,-462 361,-468 355,-468"/>
<text text-anchor="middle" x="321" y="-447.5" font-family="sans" font-size="10.00" fill="#000000">samtools_faidx</text>
</g>
<!-- 12&#45;&gt;11 -->
<g id="edge22" class="edge">
<title>12&#45;&gt;11</title>
<path fill="none" stroke="#c0c0c0" stroke-width="2" d="M332.6077,-431.8314C337.7978,-423.7079 344.0232,-413.9637 349.7425,-405.0118"/>
<polygon fill="#c0c0c0" stroke="#c0c0c0" stroke-width="2" points="352.8015,-406.7246 355.236,-396.4133 346.9026,-402.9559 352.8015,-406.7246"/>
</g>
<!-- 13 -->
<g id="node14" class="node">
<title>13</title>
<path fill="none" stroke="#d89556" stroke-width="2" d="M429,-468C429,-468 397,-468 397,-468 391,-468 385,-462 385,-456 385,-456 385,-444 385,-444 385,-438 391,-432 397,-432 397,-432 429,-432 429,-432 435,-432 441,-438 441,-444 441,-444 441,-456 441,-456 441,-462 435,-468 429,-468"/>
<text text-anchor="middle" x="413" y="-447.5" font-family="sans" font-size="10.00" fill="#000000">star_aln</text>
</g>
<!-- 13&#45;&gt;11 -->
<g id="edge21" class="edge">
<title>13&#45;&gt;11</title>
<path fill="none" stroke="#c0c0c0" stroke-width="2" d="M401.3923,-431.8314C396.2022,-423.7079 389.9768,-413.9637 384.2575,-405.0118"/>
<polygon fill="#c0c0c0" stroke="#c0c0c0" stroke-width="2" points="387.0974,-402.9559 378.764,-396.4133 381.1985,-406.7246 387.0974,-402.9559"/>
</g>
<!-- 14 -->
<g id="node15" class="node">
<title>14</title>
<path fill="none" stroke="#56d8c1" stroke-width="2" d="M444,-540C444,-540 382,-540 382,-540 376,-540 370,-534 370,-528 370,-528 370,-516 370,-516 370,-510 376,-504 382,-504 382,-504 444,-504 444,-504 450,-504 456,-510 456,-516 456,-516 456,-528 456,-528 456,-534 450,-540 444,-540"/>
<text text-anchor="middle" x="413" y="-519.5" font-family="sans" font-size="10.00" fill="#000000">star_index_gtf</text>
</g>
<!-- 14&#45;&gt;13 -->
<g id="edge23" class="edge">
<title>14&#45;&gt;13</title>
<path fill="none" stroke="#c0c0c0" stroke-width="2" d="M413,-503.8314C413,-496.131 413,-486.9743 413,-478.4166"/>
<polygon fill="#c0c0c0" stroke="#c0c0c0" stroke-width="2" points="416.5001,-478.4132 413,-468.4133 409.5001,-478.4133 416.5001,-478.4132"/>
</g>
</g>
</svg>
